<mxfile host="Electron" agent="Mozilla/5.0 (Windows NT 10.0; Win64; x64) AppleWebKit/537.36 (KHTML, like Gecko) draw.io/28.1.2 Chrome/138.0.7204.243 Electron/37.4.0 Safari/537.36" version="28.1.2">
  <diagram name="PÃ¡gina-1" id="jVDOAleI3OpJ5xzTpVgX">
    <mxGraphModel dx="1665" dy="859" grid="1" gridSize="10" guides="1" tooltips="1" connect="1" arrows="1" fold="1" page="1" pageScale="1" pageWidth="827" pageHeight="1169" math="0" shadow="0">
      <root>
        <mxCell id="0" />
        <mxCell id="1" parent="0" />
        <mxCell id="skkt9EBBC0oeprLDvx0D-1" value="" style="rounded=0;whiteSpace=wrap;html=1;movable=0;resizable=0;rotatable=0;deletable=0;editable=0;locked=1;connectable=0;" parent="1" vertex="1">
          <mxGeometry x="214" y="335" width="400" height="500" as="geometry" />
        </mxCell>
        <mxCell id="skkt9EBBC0oeprLDvx0D-10" style="edgeStyle=orthogonalEdgeStyle;rounded=0;orthogonalLoop=1;jettySize=auto;html=1;exitX=0.5;exitY=0.5;exitDx=0;exitDy=0;exitPerimeter=0;entryX=0;entryY=0.5;entryDx=0;entryDy=0;" parent="1" source="skkt9EBBC0oeprLDvx0D-3" target="skkt9EBBC0oeprLDvx0D-9" edge="1">
          <mxGeometry relative="1" as="geometry" />
        </mxCell>
        <mxCell id="skkt9EBBC0oeprLDvx0D-17" style="rounded=0;orthogonalLoop=1;jettySize=auto;html=1;entryX=0;entryY=0.5;entryDx=0;entryDy=0;" parent="1" target="skkt9EBBC0oeprLDvx0D-16" edge="1">
          <mxGeometry relative="1" as="geometry">
            <mxPoint x="135" y="435" as="sourcePoint" />
          </mxGeometry>
        </mxCell>
        <mxCell id="skkt9EBBC0oeprLDvx0D-3" value="usuarios registrados" style="shape=umlActor;verticalLabelPosition=bottom;verticalAlign=top;html=1;outlineConnect=0;" parent="1" vertex="1">
          <mxGeometry x="120" y="405" width="30" height="60" as="geometry" />
        </mxCell>
        <mxCell id="skkt9EBBC0oeprLDvx0D-39" style="edgeStyle=orthogonalEdgeStyle;rounded=0;orthogonalLoop=1;jettySize=auto;html=1;exitX=0.5;exitY=0.5;exitDx=0;exitDy=0;exitPerimeter=0;entryX=0;entryY=0.5;entryDx=0;entryDy=0;" parent="1" source="skkt9EBBC0oeprLDvx0D-4" target="skkt9EBBC0oeprLDvx0D-38" edge="1">
          <mxGeometry relative="1" as="geometry" />
        </mxCell>
        <mxCell id="skkt9EBBC0oeprLDvx0D-4" value="empleado" style="shape=umlActor;verticalLabelPosition=bottom;verticalAlign=top;html=1;outlineConnect=0;" parent="1" vertex="1">
          <mxGeometry x="140" y="630" width="30" height="60" as="geometry" />
        </mxCell>
        <mxCell id="skkt9EBBC0oeprLDvx0D-36" style="edgeStyle=orthogonalEdgeStyle;rounded=0;orthogonalLoop=1;jettySize=auto;html=1;exitX=0.5;exitY=0.5;exitDx=0;exitDy=0;exitPerimeter=0;entryX=0;entryY=0.5;entryDx=0;entryDy=0;" parent="1" source="skkt9EBBC0oeprLDvx0D-5" target="skkt9EBBC0oeprLDvx0D-35" edge="1">
          <mxGeometry relative="1" as="geometry" />
        </mxCell>
        <mxCell id="9N7DeIkgMM5lLSFChRH9-4" style="edgeStyle=orthogonalEdgeStyle;rounded=0;orthogonalLoop=1;jettySize=auto;html=1;exitX=1;exitY=0.3333333333333333;exitDx=0;exitDy=0;exitPerimeter=0;entryX=0;entryY=0.5;entryDx=0;entryDy=0;" edge="1" parent="1" source="skkt9EBBC0oeprLDvx0D-5" target="9N7DeIkgMM5lLSFChRH9-3">
          <mxGeometry relative="1" as="geometry" />
        </mxCell>
        <mxCell id="skkt9EBBC0oeprLDvx0D-5" value="responsable de area" style="shape=umlActor;verticalLabelPosition=bottom;verticalAlign=top;html=1;outlineConnect=0;" parent="1" vertex="1">
          <mxGeometry x="140" y="760" width="30" height="60" as="geometry" />
        </mxCell>
        <mxCell id="skkt9EBBC0oeprLDvx0D-9" value="Alquilar bicicleta" style="ellipse;whiteSpace=wrap;html=1;" parent="1" vertex="1">
          <mxGeometry x="268" y="380" width="80" height="40" as="geometry" />
        </mxCell>
        <mxCell id="skkt9EBBC0oeprLDvx0D-16" value="Devolver bicicleta" style="ellipse;whiteSpace=wrap;html=1;" parent="1" vertex="1">
          <mxGeometry x="268" y="470" width="80" height="40" as="geometry" />
        </mxCell>
        <mxCell id="skkt9EBBC0oeprLDvx0D-32" style="edgeStyle=orthogonalEdgeStyle;rounded=0;orthogonalLoop=1;jettySize=auto;html=1;exitX=0.5;exitY=0;exitDx=0;exitDy=0;entryX=0.5;entryY=1;entryDx=0;entryDy=0;" parent="1" source="skkt9EBBC0oeprLDvx0D-23" target="skkt9EBBC0oeprLDvx0D-16" edge="1">
          <mxGeometry relative="1" as="geometry" />
        </mxCell>
        <mxCell id="skkt9EBBC0oeprLDvx0D-33" value="extend" style="edgeLabel;html=1;align=center;verticalAlign=middle;resizable=0;points=[];" parent="skkt9EBBC0oeprLDvx0D-32" vertex="1" connectable="0">
          <mxGeometry x="-0.0562" y="3" relative="1" as="geometry">
            <mxPoint as="offset" />
          </mxGeometry>
        </mxCell>
        <mxCell id="skkt9EBBC0oeprLDvx0D-23" value="Pagar con tarjeta" style="ellipse;whiteSpace=wrap;html=1;" parent="1" vertex="1">
          <mxGeometry x="413" y="560" width="80" height="40" as="geometry" />
        </mxCell>
        <mxCell id="skkt9EBBC0oeprLDvx0D-25" value="Servidor externo de&lt;div&gt;&amp;nbsp;tarjetas&lt;/div&gt;" style="shape=umlActor;verticalLabelPosition=bottom;verticalAlign=top;html=1;" parent="1" vertex="1">
          <mxGeometry x="660" y="600" width="30" height="60" as="geometry" />
        </mxCell>
        <mxCell id="skkt9EBBC0oeprLDvx0D-26" value="" style="endArrow=none;html=1;rounded=0;entryX=0.5;entryY=0.5;entryDx=0;entryDy=0;entryPerimeter=0;exitX=1;exitY=0.5;exitDx=0;exitDy=0;" parent="1" source="skkt9EBBC0oeprLDvx0D-23" target="skkt9EBBC0oeprLDvx0D-25" edge="1">
          <mxGeometry width="50" height="50" relative="1" as="geometry">
            <mxPoint x="470" y="640" as="sourcePoint" />
            <mxPoint x="520" y="590" as="targetPoint" />
          </mxGeometry>
        </mxCell>
        <mxCell id="skkt9EBBC0oeprLDvx0D-35" value="Actualizar precio" style="ellipse;whiteSpace=wrap;html=1;" parent="1" vertex="1">
          <mxGeometry x="270" y="780" width="80" height="40" as="geometry" />
        </mxCell>
        <mxCell id="skkt9EBBC0oeprLDvx0D-37" value="" style="endArrow=block;dashed=1;endFill=0;endSize=12;html=1;rounded=0;exitX=0.5;exitY=0;exitDx=0;exitDy=0;exitPerimeter=0;" parent="1" source="skkt9EBBC0oeprLDvx0D-5" target="skkt9EBBC0oeprLDvx0D-4" edge="1">
          <mxGeometry width="160" relative="1" as="geometry">
            <mxPoint x="70" y="580" as="sourcePoint" />
            <mxPoint x="230" y="580" as="targetPoint" />
          </mxGeometry>
        </mxCell>
        <mxCell id="skkt9EBBC0oeprLDvx0D-38" value="Registrarse" style="ellipse;whiteSpace=wrap;html=1;" parent="1" vertex="1">
          <mxGeometry x="270" y="650" width="80" height="40" as="geometry" />
        </mxCell>
        <mxCell id="9N7DeIkgMM5lLSFChRH9-3" value="hacer seguimiento" style="ellipse;whiteSpace=wrap;html=1;" vertex="1" parent="1">
          <mxGeometry x="268" y="730" width="80" height="40" as="geometry" />
        </mxCell>
      </root>
    </mxGraphModel>
  </diagram>
</mxfile>
